<svg width="50" height="51" viewBox="0 0 50 51" fill="none" xmlns="http://www.w3.org/2000/svg">
<g clip-path="url(#clip0_402_333)">
<path d="M25 50.7272C38.8071 50.7272 50 39.5343 50 25.7272C50 11.9201 38.8071 0.727173 25 0.727173C11.1929 0.727173 0 11.9201 0 25.7272C0 39.5343 11.1929 50.7272 25 50.7272Z" fill="#F0F0F0"/>
<path d="M50 25.7272C50 15.8157 44.2319 7.25164 35.8695 3.20789V48.2465C44.2319 44.2028 50 35.6387 50 25.7272V25.7272Z" fill="#D80027"/>
<path d="M0 25.7272C0 35.6387 5.76807 44.2028 14.1305 48.2466V3.20789C5.76807 7.25164 0 15.8157 0 25.7272Z" fill="#6DA544"/>
<path d="M18.4782 25.7273C18.4782 29.3291 21.3981 32.249 25 32.249C28.6018 32.249 31.5218 29.3291 31.5218 25.7273V23.5533H18.4782V25.7273Z" fill="#6DA544"/>
<path d="M33.6956 21.3794H27.1738C27.1738 20.1788 26.2005 19.2054 24.9999 19.2054C23.7993 19.2054 22.826 20.1788 22.826 21.3794H16.3042C16.3042 22.5801 17.35 23.5533 18.5505 23.5533H18.4781C18.4781 24.754 19.4514 25.7272 20.6521 25.7272C20.6521 26.9279 21.6253 27.9011 22.826 27.9011H27.1738C28.3745 27.9011 29.3478 26.9279 29.3478 25.7272C30.5484 25.7272 31.5217 24.754 31.5217 23.5533H31.4492C32.6499 23.5533 33.6956 22.5801 33.6956 21.3794Z" fill="#FF9811"/>
</g>
<defs>
<clipPath id="clip0_402_333">
<rect width="50" height="50" fill="white" transform="translate(0 0.727173)"/>
</clipPath>
</defs>
</svg>
