<svg width="50" height="51" viewBox="0 0 50 51" fill="none" xmlns="http://www.w3.org/2000/svg">
<g clip-path="url(#clip0_402_333)">
<path d="M25 50.7272C38.8071 50.7272 50 39.5343 50 25.7272C50 11.9201 38.8071 0.727173 25 0.727173C11.1929 0.727173 0 11.9201 0 25.7272C0 39.5343 11.1929 50.7272 25 50.7272Z" fill="#6DA544"/>
<path d="M14.1305 30.6185C14.1305 32.4194 15.5904 33.8794 17.3913 33.8794H27.1739C27.1739 35.3801 28.3905 36.5968 29.8913 36.5968H33.1521C34.6529 36.5968 35.8695 35.3801 35.8695 33.8794V30.6185H14.1305Z" fill="#F0F0F0"/>
<path d="M36.1413 14.8577V22.4664C36.1413 23.6651 35.1661 24.6403 33.9674 24.6403V27.9011C36.9642 27.9011 39.4021 25.463 39.4021 22.4664V14.8577H36.1413Z" fill="#F0F0F0"/>
<path d="M12.7718 22.4664C12.7718 23.6651 11.7966 24.6403 10.5978 24.6403V27.9011C13.5946 27.9011 16.0326 25.463 16.0326 22.4664V14.8577H12.7718V22.4664Z" fill="#F0F0F0"/>
<path d="M31.25 14.8577H34.5108V22.4664H31.25V14.8577Z" fill="#F0F0F0"/>
<path d="M26.3587 19.2054C26.3587 19.5051 26.1148 19.7489 25.8152 19.7489C25.5156 19.7489 25.2718 19.505 25.2718 19.2054V14.8575H22.0109V19.2054C22.0109 19.5051 21.7671 19.7489 21.4675 19.7489C21.1679 19.7489 20.924 19.505 20.924 19.2054V14.8575H17.6631V19.2054C17.6631 21.3031 19.3697 23.0098 21.4675 23.0098C22.2754 23.0098 23.0246 22.7559 23.6414 22.3246C24.2581 22.7558 25.0074 23.0098 25.8153 23.0098C25.978 23.0098 26.138 22.9984 26.2953 22.9783C26.0643 23.9304 25.2068 24.6402 24.1849 24.6402V27.901C27.1816 27.901 29.6196 25.4629 29.6196 22.4662V19.2054V14.8575H26.3588V19.2054H26.3587Z" fill="#F0F0F0"/>
<path d="M17.6631 24.6403H22.5544V27.9011H17.6631V24.6403Z" fill="#F0F0F0"/>
</g>
<defs>
<clipPath id="clip0_402_333">
<rect width="50" height="50" fill="white" transform="translate(0 0.727173)"/>
</clipPath>
</defs>
</svg>
