<svg width="50" height="51" viewBox="0 0 50 51" fill="none" xmlns="http://www.w3.org/2000/svg">
<g clip-path="url(#clip0_402_296)">
<path d="M0 25.8181C0 28.8761 0.550098 31.8054 1.55498 34.5137L25 36.6877L48.445 34.5137C49.4499 31.8054 50 28.8761 50 25.8181C50 22.7601 49.4499 19.8308 48.445 17.1225L25 14.9486L1.55498 17.1225C0.550098 19.8308 0 22.7601 0 25.8181H0Z" fill="#FFDA44"/>
<path d="M48.445 17.1225C44.9127 7.60259 35.7491 0.818115 25 0.818115C14.2509 0.818115 5.08732 7.60259 1.55499 17.1225H48.445Z" fill="#D80027"/>
<path d="M1.55499 34.5137C5.08732 44.0336 14.2509 50.8181 25 50.8181C35.7491 50.8181 44.9127 44.0336 48.445 34.5137H1.55499Z" fill="#D80027"/>
</g>
<defs>
<clipPath id="clip0_402_296">
<rect width="50" height="50" fill="white" transform="translate(0 0.818115)"/>
</clipPath>
</defs>
</svg>
