<svg width="50" height="51" viewBox="0 0 50 51" fill="none" xmlns="http://www.w3.org/2000/svg">
<g clip-path="url(#clip0_402_333)">
<path d="M35.8695 3.20784C32.5828 1.61858 28.8955 0.727173 25 0.727173C21.1045 0.727173 17.4172 1.61858 14.1305 3.20784L11.9565 25.7272L14.1305 48.2465C17.4172 49.8358 21.1045 50.7272 25 50.7272C28.8955 50.7272 32.5828 49.8358 35.8695 48.2465L38.0435 25.7272L35.8695 3.20784Z" fill="#FFDA44"/>
<path d="M24.9998 17.0316L27.158 23.6742H34.1432L28.4924 27.78L30.6507 34.4228L24.9998 30.3174L19.3489 34.4228L21.5076 27.78L15.8568 23.6742H22.8415L24.9998 17.0316Z" fill="#496E2D"/>
<path d="M14.1305 3.20874C5.76816 7.25239 0 15.8158 0 25.7272C0 35.6386 5.76816 44.202 14.1305 48.2457V3.20874Z" fill="#496E2D"/>
<path d="M35.8695 3.20874V48.2457C44.2318 44.202 50 35.6386 50 25.7272C50 15.8158 44.2318 7.25239 35.8695 3.20874Z" fill="#D80027"/>
</g>
<defs>
<clipPath id="clip0_402_333">
<rect width="50" height="50" fill="white" transform="translate(0 0.727173)"/>
</clipPath>
</defs>
</svg>
