<svg width="50" height="51" viewBox="0 0 50 51" fill="none" xmlns="http://www.w3.org/2000/svg">
<g clip-path="url(#clip0_402_333)">
<path d="M25 50.7272C38.8071 50.7272 50 39.5343 50 25.7272C50 11.9201 38.8071 0.727173 25 0.727173C11.1929 0.727173 0 11.9201 0 25.7272C0 39.5343 11.1929 50.7272 25 50.7272Z" fill="#F0F0F0"/>
<path d="M23.9131 25.7272H50C50 23.4708 49.6992 21.2848 49.1388 19.2054H23.9131V25.7272Z" fill="#D80027"/>
<path d="M23.9131 12.6838H46.3307C44.8003 10.1865 42.8436 7.97917 40.5621 6.16199H23.9131V12.6838Z" fill="#D80027"/>
<path d="M25 50.7272C30.8837 50.7272 36.2916 48.6937 40.5621 45.2925H9.4379C13.7084 48.6937 19.1163 50.7272 25 50.7272Z" fill="#D80027"/>
<path d="M3.66934 38.7707H46.3307C47.5593 36.7659 48.5121 34.5745 49.1388 32.2489H0.861237C1.4879 34.5745 2.44073 36.7659 3.66934 38.7707V38.7707Z" fill="#D80027"/>
<path d="M11.5805 4.63127H13.8587L11.7396 6.17083L12.549 8.66194L10.43 7.12239L8.31094 8.66194L9.01016 6.50989C7.14434 8.06409 5.50898 9.88499 4.16133 11.9139H4.89131L3.54238 12.8939C3.33223 13.2445 3.13066 13.6006 2.9375 13.962L3.58164 15.9446L2.37988 15.0714C2.08115 15.7043 1.80791 16.3515 1.5623 17.0121L2.27197 19.1965H4.89131L2.77217 20.7361L3.58164 23.2272L1.4626 21.6876L0.193262 22.6099C0.0662109 23.6312 0 24.6714 0 25.7272H25C25 11.9201 25 10.2924 25 0.727173C20.0613 0.727173 15.4575 2.15979 11.5805 4.63127V4.63127ZM12.549 23.2272L10.43 21.6876L8.31094 23.2272L9.12041 20.7361L7.00127 19.1965H9.62061L10.43 16.7054L11.2394 19.1965H13.8587L11.7396 20.7361L12.549 23.2272ZM11.7396 13.4534L12.549 15.9446L10.43 14.405L8.31094 15.9446L9.12041 13.4534L7.00127 11.9139H9.62061L10.43 9.42278L11.2394 11.9139H13.8587L11.7396 13.4534ZM21.5164 23.2272L19.3974 21.6876L17.2783 23.2272L18.0878 20.7361L15.9687 19.1965H18.588L19.3974 16.7054L20.2067 19.1965H22.8261L20.7069 20.7361L21.5164 23.2272ZM20.7069 13.4534L21.5164 15.9446L19.3974 14.405L17.2783 15.9446L18.0878 13.4534L15.9687 11.9139H18.588L19.3974 9.42278L20.2067 11.9139H22.8261L20.7069 13.4534ZM20.7069 6.17083L21.5164 8.66194L19.3974 7.12239L17.2783 8.66194L18.0878 6.17083L15.9687 4.63127H18.588L19.3974 2.14016L20.2067 4.63127H22.8261L20.7069 6.17083Z" fill="#0052B4"/>
</g>
<defs>
<clipPath id="clip0_402_333">
<rect width="50" height="50" fill="white" transform="translate(0 0.727173)"/>
</clipPath>
</defs>
</svg>
