<svg width="50" height="51" viewBox="0 0 50 51" fill="none" xmlns="http://www.w3.org/2000/svg">
<g clip-path="url(#clip0_402_333)">
<path d="M25 50.7272C38.8071 50.7272 50 39.5343 50 25.7272C50 11.9201 38.8071 0.727173 25 0.727173C11.1929 0.727173 0 11.9201 0 25.7272C0 39.5343 11.1929 50.7272 25 50.7272Z" fill="#D80027"/>
<path d="M25 37.6837C31.6034 37.6837 36.9565 32.3306 36.9565 25.7272C36.9565 19.1238 31.6034 13.7706 25 13.7706C18.3966 13.7706 13.0435 19.1238 13.0435 25.7272C13.0435 32.3306 18.3966 37.6837 25 37.6837Z" fill="#F0F0F0"/>
<path d="M26.4729 21.1555L28.5241 23.9822L31.8461 22.905L29.7917 25.7292L31.8427 28.5558L28.5218 27.4746L26.4674 30.2988L26.4695 26.8065L23.1487 25.7252L26.4708 24.6481L26.4729 21.1555Z" fill="#D80027"/>
<path d="M27.7174 32.7924C23.8154 32.7924 20.6521 29.6292 20.6521 25.7272C20.6521 21.8252 23.8154 18.662 27.7174 18.662C28.934 18.662 30.0788 18.9696 31.0782 19.5112C29.5103 17.9779 27.3663 17.0315 25 17.0315C20.1976 17.0315 16.3044 20.9247 16.3044 25.7271C16.3044 30.5295 20.1976 34.4227 25 34.4227C27.3663 34.4227 29.5104 33.4763 31.0782 31.943C30.0788 32.4848 28.934 32.7924 27.7174 32.7924Z" fill="#D80027"/>
</g>
<defs>
<clipPath id="clip0_402_333">
<rect width="50" height="50" fill="white" transform="translate(0 0.727173)"/>
</clipPath>
</defs>
</svg>
