<svg width="50" height="51" viewBox="0 0 50 51" fill="none" xmlns="http://www.w3.org/2000/svg">
<g clip-path="url(#clip0_402_333)">
<path d="M0 25.7272C0 11.9201 11.193 0.727173 25 0.727173C38.807 0.727173 50 11.9201 50 25.7272L25 27.9011L0 25.7272Z" fill="#FFDA44"/>
<path d="M3.34531 38.2271C7.66806 45.6994 15.7466 50.7271 25 50.7271C34.2534 50.7271 42.3319 45.6994 46.6547 38.2271L25 36.5967L3.34531 38.2271Z" fill="#D80027"/>
<path d="M46.6547 38.2272C48.7818 34.55 50 30.281 50 25.7272H0C0 30.281 1.21816 34.55 3.34531 38.2272H46.6547Z" fill="#0052B4"/>
<path d="M25 34.4228C29.8024 34.4228 33.6956 30.5297 33.6956 25.7272C33.6956 20.9248 29.8024 17.0316 25 17.0316C20.1975 17.0316 16.3044 20.9248 16.3044 25.7272C16.3044 30.5297 20.1975 34.4228 25 34.4228Z" fill="#FFDA44"/>
<path d="M25 31.162C22.0032 31.162 19.5652 28.7239 19.5652 25.7272V22.4664C19.5652 19.4696 22.0033 17.0316 25 17.0316C27.9967 17.0316 30.4348 19.4697 30.4348 22.4664V25.7272C30.4348 28.724 27.9968 31.162 25 31.162Z" fill="#338AF3"/>
<path d="M33.6956 12.6837H27.1738C27.1738 11.4831 26.2005 10.5098 24.9999 10.5098C23.7993 10.5098 22.826 11.4831 22.826 12.6837H16.3042C16.3042 13.8844 17.35 14.8576 18.5505 14.8576H18.4781C18.4781 16.0583 19.4514 17.0315 20.6521 17.0315C20.6521 18.2322 21.6253 19.2055 22.826 19.2055H27.1738C28.3745 19.2055 29.3478 18.2322 29.3478 17.0315C30.5484 17.0315 31.5217 16.0583 31.5217 14.8576H31.4493C32.6499 14.8576 33.6956 13.8843 33.6956 12.6837V12.6837Z" fill="black"/>
</g>
<defs>
<clipPath id="clip0_402_333">
<rect width="50" height="50" fill="white" transform="translate(0 0.727173)"/>
</clipPath>
</defs>
</svg>
