<svg width="50" height="51" viewBox="0 0 50 51" fill="none" xmlns="http://www.w3.org/2000/svg">
<g clip-path="url(#clip0_402_296)">
<path d="M25 50.8181C38.8071 50.8181 50 39.6252 50 25.8181C50 12.011 38.8071 0.818115 25 0.818115C11.1929 0.818115 0 12.011 0 25.8181C0 39.6252 11.1929 50.8181 25 50.8181Z" fill="#D80027"/>
<path d="M39.7742 21.3347H28.4877L25 10.6007L21.5123 21.3347H10.2258L19.3567 27.9687L15.8689 38.703L25 32.0689L34.131 38.7031L30.6432 27.9688L39.7742 21.3347ZM21.9123 27.1383L23.0917 23.5085H26.9082L28.0877 27.1383V27.1384L25 29.3817L21.9124 27.1384L21.9123 27.1383ZM26.2019 21.3347H23.7981L25 17.6355L26.2019 21.3347ZM29.9368 25.7948L29.1939 23.5086H33.0835L29.9368 25.7948ZM20.8059 23.5086L20.0631 25.7948L16.9163 23.5086H20.8059ZM20.004 33.0115L21.2059 29.3124L23.1508 30.7253L20.004 33.0115ZM26.8492 30.7254L28.794 29.3125L29.996 33.0116L26.8492 30.7254Z" fill="#FFDA44"/>
</g>
<defs>
<clipPath id="clip0_402_296">
<rect width="50" height="50" fill="white" transform="translate(0 0.818115)"/>
</clipPath>
</defs>
</svg>
