<svg width="50" height="51" viewBox="0 0 50 51" fill="none" xmlns="http://www.w3.org/2000/svg">
<g clip-path="url(#clip0_402_333)">
<path d="M50 25.7272C50 39.5342 38.807 50.7272 25 50.7272C11.193 50.7272 0 39.5342 0 25.7272C0 25.733 25 0.730005 25 0.727173C38.807 0.727173 50 11.9201 50 25.7272Z" fill="#0052B4"/>
<path d="M25 0.727173C24.9986 0.727173 24.9972 0.727271 24.9958 0.727271L25 0.727173Z" fill="#F0F0F0"/>
<path d="M24.9331 25.7272H25C25 25.7045 25 25.6828 25 25.6603C24.9777 25.6826 24.9555 25.7049 24.9331 25.7272Z" fill="#F0F0F0"/>
<path d="M25 13.7708C25 9.37183 25 6.48931 25 0.727295H24.9958C11.1906 0.729541 0 11.9214 0 25.7272H13.0435V18.3823L20.3884 25.7272H24.9332C24.9556 25.7049 24.9778 25.6827 25.0001 25.6603C25.0001 23.976 25.0001 22.4732 25.0001 21.1158L17.6551 13.7708H25Z" fill="#F0F0F0"/>
<path d="M12.6479 3.98804C8.73788 6.2145 5.4873 9.46509 3.26083 13.3751V25.7272H9.78261V10.5099V10.5098H25C25 8.45288 25 6.49331 25 3.98804H12.6479Z" fill="#D80027"/>
<path d="M25 22.6528L16.1179 13.7708H13.0435C13.0435 13.7707 13.0435 13.7708 13.0435 13.7708L24.9999 25.7271H25C25 25.7271 25 23.6075 25 22.6528Z" fill="#D80027"/>
<path d="M15.0776 30.075L16.4497 32.9439L19.548 32.2278L18.1605 35.0893L20.6521 37.0652L17.5499 37.7644L17.5586 40.9445L15.0776 38.9549L12.5968 40.9445L12.6055 37.7644L9.50311 37.0652L11.9948 35.0893L10.6071 32.2278L13.7057 32.9439L15.0776 30.075Z" fill="#F0F0F0"/>
<path d="M37.4301 35.5098L38.1161 36.9442L39.6653 36.5861L38.9715 38.0169L40.2174 39.0049L38.6662 39.3545L38.6705 40.9445L37.4301 39.9497L36.1896 40.9445L36.1939 39.3545L34.6429 39.0049L35.8887 38.0169L35.1949 36.5861L36.744 36.9442L37.4301 35.5098Z" fill="#F0F0F0"/>
<path d="M31.0481 20.2924L31.7341 21.7269L33.2833 21.3687L32.5895 22.7995L33.8353 23.7875L32.2843 24.1371L32.2885 25.7271L31.0481 24.7323L29.8077 25.7271L29.8119 24.1371L28.2608 23.7875L29.5066 22.7995L28.8129 21.3687L30.3621 21.7269L31.0481 20.2924Z" fill="#F0F0F0"/>
<path d="M37.4301 11.5967L38.1161 13.0312L39.6653 12.6731L38.9716 14.1039L40.2173 15.0918L38.6662 15.4415L38.6705 17.0315L37.4301 16.0367L36.1896 17.0315L36.1939 15.4415L34.6429 15.0918L35.8886 14.1039L35.1949 12.6731L36.744 13.0312L37.4301 11.5967Z" fill="#F0F0F0"/>
<path d="M43.0047 18.1184L43.6906 19.553L45.2398 19.1948L44.5461 20.6255L45.7919 21.6135L44.2407 21.9632L44.245 23.5532L43.0047 22.5584L41.7643 23.5532L41.7685 21.9632L40.2174 21.6135L41.4632 20.6255L40.7694 19.1948L42.3186 19.553L43.0047 18.1184Z" fill="#F0F0F0"/>
<path d="M39.0185 25.7272L39.5581 27.3879H41.3044L39.8916 28.4144L40.4313 30.075L39.0185 29.0487L37.6058 30.075L38.1454 28.4144L36.7327 27.3879H38.4789L39.0185 25.7272Z" fill="#F0F0F0"/>
</g>
<defs>
<clipPath id="clip0_402_333">
<rect width="50" height="50" fill="white" transform="translate(0 0.727173)"/>
</clipPath>
</defs>
</svg>
