<svg width="50" height="51" viewBox="0 0 50 51" fill="none" xmlns="http://www.w3.org/2000/svg">
<g clip-path="url(#clip0_402_296)">
<path d="M50 25.8181C50 22.7601 49.4499 19.8307 48.445 17.1225L25 16.0355L1.55498 17.1224C0.550098 19.8307 0 22.7601 0 25.8181C0 28.8761 0.550098 31.8055 1.55498 34.5137L25 35.6008L48.445 34.5138C49.4499 31.8055 50 28.8761 50 25.8181Z" fill="#F0F0F0"/>
<path d="M25 50.8181C35.7491 50.8181 44.9127 44.0337 48.445 34.5137H1.55499C5.08732 44.0337 14.2509 50.8181 25 50.8181Z" fill="#0052B4"/>
<path d="M1.55499 17.1225H48.4451C44.9127 7.60249 35.7491 0.818115 25 0.818115C14.2509 0.818115 5.08732 7.60249 1.55499 17.1225V17.1225Z" fill="#D80027"/>
<path d="M31.5218 18.2095H27.1739L27.8986 12.7746L30.7971 10.6007L33.6956 12.7746V17.1225L31.5218 18.2095Z" fill="#338AF3"/>
<path d="M18.4782 18.2095H22.8261L22.1014 12.7746L19.2028 10.6007L16.3044 12.7746V17.1225L18.4782 18.2095Z" fill="#338AF3"/>
<path d="M27.8986 18.2095H22.1014V12.7746L25 10.6007L27.8986 12.7746V18.2095Z" fill="#0052B4"/>
<path d="M16.3044 17.1226V29.079C16.3044 31.926 17.6796 34.4578 19.8007 36.045L21.3224 35.6643L23.2428 37.5961C23.8106 37.7131 24.3982 37.7747 25.0001 37.7747C25.5987 37.7747 26.1834 37.7139 26.7482 37.5981L28.9403 35.7729L30.1993 36.0415C32.3195 34.4544 33.6957 31.9252 33.6957 29.079V17.1226H16.3044Z" fill="#F0F0F0"/>
<path d="M16.3044 17.1226H19.7826V20.6008H16.3044V17.1226Z" fill="#D80027"/>
<path d="M23.2608 17.1226H26.7391V20.6008H23.2608V17.1226Z" fill="#D80027"/>
<path d="M30.2174 17.1226H33.6956V20.6008H30.2174V17.1226Z" fill="#D80027"/>
<path d="M19.7826 20.6008H23.2608V24.0791H19.7826V20.6008Z" fill="#D80027"/>
<path d="M26.7391 20.6008H30.2174V24.0791H26.7391V20.6008Z" fill="#D80027"/>
<path d="M16.3044 24.0779H19.7826V27.5561H16.3044V24.0779Z" fill="#D80027"/>
<path d="M19.7826 27.5563H23.2608V31.0345H19.7826V27.5563Z" fill="#D80027"/>
<path d="M23.2608 24.0779H26.7391V27.5561H23.2608V24.0779Z" fill="#D80027"/>
<path d="M30.2174 24.0779H33.6956V27.5561H30.2174V24.0779Z" fill="#D80027"/>
<path d="M26.7391 27.5563H30.2174V31.0345H26.7391V27.5563Z" fill="#D80027"/>
<path d="M23.2608 31.0344H26.7391V34.5126H23.2608V31.0344Z" fill="#D80027"/>
<path d="M19.7826 31.0348H16.5288C16.8272 32.3278 17.414 33.5109 18.2185 34.513H19.7826V31.0348Z" fill="#D80027"/>
<path d="M30.2174 34.5131H31.7814C32.5861 33.511 33.1726 32.3278 33.4711 31.0349H30.2174V34.5131Z" fill="#D80027"/>
<path d="M19.7826 34.5131V36.0307C20.7942 36.792 21.9764 37.3378 23.2608 37.5997V34.5131H19.7826Z" fill="#D80027"/>
<path d="M26.7391 34.5131V37.5997C28.0236 37.338 29.2057 36.792 30.2174 36.0307V34.5131H26.7391Z" fill="#D80027"/>
</g>
<defs>
<clipPath id="clip0_402_296">
<rect width="50" height="50" fill="white" transform="translate(0 0.818115)"/>
</clipPath>
</defs>
</svg>
