<svg width="50" height="51" viewBox="0 0 50 51" fill="none" xmlns="http://www.w3.org/2000/svg">
<g clip-path="url(#clip0_402_333)">
<path d="M25 50.7272C38.8071 50.7272 50 39.5343 50 25.7272C50 11.9201 38.8071 0.727173 25 0.727173C11.1929 0.727173 0 11.9201 0 25.7272C0 39.5343 11.1929 50.7272 25 50.7272Z" fill="#F0F0F0"/>
<path d="M25 0.727173C15.0885 0.727173 6.5244 6.49524 2.48065 14.8576H47.5192C43.4756 6.49524 34.9114 0.727173 25 0.727173V0.727173Z" fill="#338AF3"/>
<path d="M25 50.7271C34.9114 50.7271 43.4756 44.9591 47.5193 36.5967H2.48065C6.5244 44.9591 15.0885 50.7271 25 50.7271Z" fill="#338AF3"/>
<path d="M32.4722 25.7271L29.4189 27.1634L31.0448 30.1203L27.7294 29.486L27.3093 32.8352L25 30.3719L22.6906 32.8352L22.2706 29.486L18.9552 30.1202L20.581 27.1633L17.5278 25.7271L20.5811 24.2909L18.9552 21.3341L22.2705 21.9682L22.6907 18.619L25 21.0823L27.3094 18.619L27.7294 21.9682L31.0449 21.3341L29.419 24.291L32.4722 25.7271Z" fill="#FFDA44"/>
</g>
<defs>
<clipPath id="clip0_402_333">
<rect width="50" height="50" fill="white" transform="translate(0 0.727173)"/>
</clipPath>
</defs>
</svg>
