<svg width="50" height="51" viewBox="0 0 50 51" fill="none" xmlns="http://www.w3.org/2000/svg">
<g clip-path="url(#clip0_402_333)">
<path d="M25 50.7272C38.8071 50.7272 50 39.5343 50 25.7272C50 11.9201 38.8071 0.727173 25 0.727173C11.1929 0.727173 0 11.9201 0 25.7272C0 39.5343 11.1929 50.7272 25 50.7272Z" fill="#F0F0F0"/>
<path d="M25 0.727173C14.2509 0.727173 5.08732 7.51155 1.55499 17.0316H48.4451C44.9127 7.51155 35.7491 0.727173 25 0.727173V0.727173Z" fill="#A2001D"/>
<path d="M25 50.7271C35.7491 50.7271 44.9127 43.9427 48.445 34.4227H1.55499C5.08732 43.9427 14.2509 50.7271 25 50.7271Z" fill="#0052B4"/>
</g>
<defs>
<clipPath id="clip0_402_333">
<rect width="50" height="50" fill="white" transform="translate(0 0.727173)"/>
</clipPath>
</defs>
</svg>
