<svg width="50" height="51" viewBox="0 0 50 51" fill="none" xmlns="http://www.w3.org/2000/svg">
<g clip-path="url(#clip0_402_296)">
<path d="M25 50.8181C38.8071 50.8181 50 39.6252 50 25.8181C50 12.011 38.8071 0.818115 25 0.818115C11.1929 0.818115 0 12.011 0 25.8181C0 39.6252 11.1929 50.8181 25 50.8181Z" fill="#F0F0F0"/>
<path d="M48.445 17.1226H1.55498C0.550098 19.8309 0 22.7602 0 25.8182C0 28.8762 0.550098 31.8055 1.55498 34.5138H48.4451C49.45 31.8055 50 28.8762 50 25.8182C50 22.7602 49.45 19.8309 48.445 17.1226Z" fill="#D80027"/>
<path d="M25 0.818115C17.4228 0.818115 10.6334 4.1896 6.04874 9.51372H43.9512C39.3666 4.1896 32.5773 0.818115 25 0.818115V0.818115Z" fill="#0052B4"/>
<path d="M43.9513 42.1226H6.04874C10.6334 47.4467 17.4228 50.8182 25 50.8182C32.5773 50.8182 39.3666 47.4467 43.9513 42.1226Z" fill="#0052B4"/>
</g>
<defs>
<clipPath id="clip0_402_296">
<rect width="50" height="50" fill="white" transform="translate(0 0.818115)"/>
</clipPath>
</defs>
</svg>
