<svg width="50" height="51" viewBox="0 0 50 51" fill="none" xmlns="http://www.w3.org/2000/svg">
<g clip-path="url(#clip0_402_333)">
<path d="M25 50.7272C38.8071 50.7272 50 39.5343 50 25.7272C50 11.9201 38.8071 0.727173 25 0.727173C11.1929 0.727173 0 11.9201 0 25.7272C0 39.5343 11.1929 50.7272 25 50.7272Z" fill="#F0F0F0"/>
<path d="M50 25.7272C50 11.9201 38.807 0.727173 25 0.727173C20.1094 0.727173 15.5475 2.13293 11.6941 4.56028L17.1739 6.8885L9.78262 10.0289L17.1739 13.1693L9.78262 16.3095L17.1739 19.4496L9.78262 22.5894L17.1739 25.7289L9.78262 28.8692L17.1739 32.0092L9.78262 35.149L17.1739 38.289L9.78262 41.4292L17.1739 44.569L11.6966 46.8959C15.5494 49.3221 20.1104 50.7272 25 50.7272C38.807 50.7272 50 39.5342 50 25.7272Z" fill="#751A46"/>
</g>
<defs>
<clipPath id="clip0_402_333">
<rect width="50" height="50" fill="white" transform="translate(0 0.727173)"/>
</clipPath>
</defs>
</svg>
