<svg width="50" height="51" viewBox="0 0 50 51" fill="none" xmlns="http://www.w3.org/2000/svg">
<g clip-path="url(#clip0_402_333)">
<path d="M25 50.7272C38.8071 50.7272 50 39.5343 50 25.7272C50 11.9201 38.8071 0.727173 25 0.727173C11.1929 0.727173 0 11.9201 0 25.7272C0 39.5343 11.1929 50.7272 25 50.7272Z" fill="#F0F0F0"/>
<path d="M50 25.7272C50 39.5342 38.807 50.7272 25 50.7272C11.193 50.7272 0 39.5342 0 25.7272" fill="#496E2D"/>
<path d="M43.2631 18.124C42.3691 15.5885 39.9533 13.7708 37.112 13.7708H31.5218C27.9199 13.7708 25 16.6907 25 20.2925C25 21.4693 25.3133 22.6002 25.8585 23.5534C23.7826 23.5364 21.8614 23.5677 20.6522 23.5534C20.6522 21.0381 20.6522 17.834 20.6522 17.1636L20.909 16.9068C22.0619 15.7539 21.6775 13.8324 21.6775 13.8324C21.6775 13.8324 19.7562 13.4481 18.6032 14.601L17.2596 15.9447H15.7609C12.4591 15.9447 9.78263 18.6212 9.78263 21.9229H14.1305V26.8142C14.1305 27.5296 14.2747 28.2112 14.5354 28.8319L13.0435 30.075H10.8695V27.9011H8.69562V32.249H18.4782V36.5968H16.3043V38.7708H20.6522V34.4229L22.6448 32.0316H27.3551L29.3478 34.4229V36.5968H27.1738V38.7708H35.8694V26.8141C35.8694 25.0132 37.3294 23.5533 39.1303 23.5533C39.1766 23.5533 39.2225 23.5549 39.2684 23.5568C39.1783 23.2083 39.1303 22.843 39.1303 22.4664C39.1305 20.1374 40.9618 18.2362 43.2631 18.124V18.124ZM31.5218 36.5967V32.0315H31.7029L33.6956 34.4228V36.5967H31.5218Z" fill="#D80027"/>
</g>
<defs>
<clipPath id="clip0_402_333">
<rect width="50" height="50" fill="white" transform="translate(0 0.727173)"/>
</clipPath>
</defs>
</svg>
