<svg width="50" height="51" viewBox="0 0 50 51" fill="none" xmlns="http://www.w3.org/2000/svg">
<g clip-path="url(#clip0_402_333)">
<path d="M25 50.7272C38.8071 50.7272 50 39.5343 50 25.7272C50 11.9201 38.8071 0.727173 25 0.727173C11.1929 0.727173 0 11.9201 0 25.7272C0 39.5343 11.1929 50.7272 25 50.7272Z" fill="#F0F0F0"/>
<path d="M19.5653 22.4663H49.7884C48.1904 10.2 37.7018 0.727173 25 0.727173C23.1333 0.727173 21.3152 0.933521 19.5652 1.32141V22.4663H19.5653Z" fill="#D80027"/>
<path d="M13.0434 22.4663V3.76697C6.17889 7.51248 1.26464 14.3827 0.211609 22.4664H13.0434V22.4663Z" fill="#D80027"/>
<path d="M13.0433 28.988H0.211609C1.26464 37.0717 6.17889 43.9419 13.0434 47.6874L13.0433 28.988Z" fill="#D80027"/>
<path d="M19.5652 28.9881V50.133C21.3152 50.5209 23.1333 50.7272 25 50.7272C37.7018 50.7272 48.1904 41.2543 49.7884 28.988H19.5652V28.9881Z" fill="#D80027"/>
</g>
<defs>
<clipPath id="clip0_402_333">
<rect width="50" height="50" fill="white" transform="translate(0 0.727173)"/>
</clipPath>
</defs>
</svg>
