<svg width="50" height="51" viewBox="0 0 50 51" fill="none" xmlns="http://www.w3.org/2000/svg">
<g clip-path="url(#clip0_402_296)">
<path d="M33.6956 2.3731C30.9873 1.36821 28.058 0.818115 25 0.818115C21.942 0.818115 19.0127 1.36821 16.3044 2.3731L14.1305 25.8181L16.3044 49.2631C19.0127 50.2681 21.942 50.8181 25 50.8181C28.058 50.8181 30.9873 50.2681 33.6956 49.2631L35.8695 25.8181L33.6956 2.3731Z" fill="#FFDA44"/>
<path d="M50 25.8181C50 15.0691 43.2156 5.9054 33.6956 2.37317V49.2633C43.2156 45.7308 50 36.5673 50 25.8181V25.8181Z" fill="#D80027"/>
<path d="M0 25.8181C0 36.5673 6.78437 45.7308 16.3044 49.2632V2.37317C6.78437 5.9054 0 15.0691 0 25.8181V25.8181Z" fill="black"/>
</g>
<defs>
<clipPath id="clip0_402_296">
<rect width="50" height="50" fill="white" transform="translate(0 0.818115)"/>
</clipPath>
</defs>
</svg>
