<svg width="50" height="51" viewBox="0 0 50 51" fill="none" xmlns="http://www.w3.org/2000/svg">
<g clip-path="url(#clip0_402_333)">
<path d="M25 50.7272C38.8071 50.7272 50 39.5343 50 25.7272C50 11.9201 38.8071 0.727173 25 0.727173C11.1929 0.727173 0 11.9201 0 25.7272C0 39.5343 11.1929 50.7272 25 50.7272Z" fill="#F0F0F0"/>
<path d="M50 25.7271C50 14.978 43.2156 5.81443 33.6956 2.2821V49.1722C43.2156 45.6398 50 36.4762 50 25.7271V25.7271Z" fill="#D80027"/>
<path d="M0 25.7271C0 36.4762 6.78447 45.6398 16.3044 49.1721V2.2821C6.78447 5.81443 0 14.978 0 25.7271Z" fill="#0052B4"/>
</g>
<defs>
<clipPath id="clip0_402_333">
<rect width="50" height="50" fill="white" transform="translate(0 0.727173)"/>
</clipPath>
</defs>
</svg>
