<svg width="50" height="51" viewBox="0 0 50 51" fill="none" xmlns="http://www.w3.org/2000/svg">
<g clip-path="url(#clip0_402_333)">
<path d="M25 50.7272C38.8071 50.7272 50 39.5343 50 25.7272C50 11.9201 38.8071 0.727173 25 0.727173C11.1929 0.727173 0 11.9201 0 25.7272C0 39.5343 11.1929 50.7272 25 50.7272Z" fill="#F0F0F0"/>
<path d="M49.7884 22.4663H28.261H28.2609V0.938794C27.1935 0.799829 26.1052 0.727173 25 0.727173C23.8948 0.727173 22.8065 0.799829 21.7392 0.938794V22.4661V22.4662H0.211621C0.0726563 23.5337 0 24.6218 0 25.7272C0 26.8325 0.0726563 27.9206 0.211621 28.988H21.739H21.7391V50.5156C22.8065 50.6545 23.8948 50.7272 25 50.7272C26.1052 50.7272 27.1935 50.6546 28.2608 50.5156V28.9882V28.9881H49.7884C49.9273 27.9206 50 26.8325 50 25.7272C50 24.6218 49.9273 23.5337 49.7884 22.4663V22.4663Z" fill="#D80027"/>
</g>
<defs>
<clipPath id="clip0_402_333">
<rect width="50" height="50" fill="white" transform="translate(0 0.727173)"/>
</clipPath>
</defs>
</svg>
