<svg width="50" height="51" viewBox="0 0 50 51" fill="none" xmlns="http://www.w3.org/2000/svg">
<g clip-path="url(#clip0_402_333)">
<path d="M25 50.7272C38.8071 50.7272 50 39.5343 50 25.7272C50 11.9201 38.8071 0.727173 25 0.727173C11.1929 0.727173 0 11.9201 0 25.7272C0 39.5343 11.1929 50.7272 25 50.7272Z" fill="#F0F0F0"/>
<path d="M33.1198 19.2054H29.8489C29.876 19.5649 29.8913 19.9276 29.8913 20.2923C29.8913 22.7107 29.2868 25.0547 28.233 26.7233C27.9079 27.2379 27.3616 27.9647 26.6304 28.4549V19.2053H23.3695V28.4549C22.6384 27.9647 22.092 27.238 21.7669 26.7233C20.713 25.0547 20.1086 22.7107 20.1086 20.2923C20.1086 19.9276 20.124 19.5648 20.151 19.2054H16.8801C16.8591 19.5631 16.8477 19.9254 16.8477 20.2923C16.8477 26.997 20.4285 32.2489 24.9998 32.2489C29.5711 32.2489 33.152 26.997 33.152 20.2923C33.1522 19.9254 33.1407 19.5631 33.1198 19.2054V19.2054Z" fill="#D80027"/>
<path d="M10.3261 12.6837H13.5869V14.8576H16.8477V12.6837H20.1086V14.8576H23.3694V12.6837H26.6303V14.8576H29.8911V12.6837H33.1519V14.8576H36.4128V12.6837H39.6736V14.8576H47.519C43.4756 6.49524 34.9114 0.727173 25 0.727173C15.0886 0.727173 6.5244 6.49524 2.48065 14.8576H10.3261V12.6837Z" fill="#6DA544"/>
<path d="M39.6739 36.5967V38.7706H36.4131V36.5967H33.1522V38.7706H29.8914V36.5967H26.6306V38.7706H23.3697V36.5967H20.1089V38.7706H16.848V36.5967H13.5869V38.7706H10.3261V36.5967H2.48065C6.5244 44.9591 15.0885 50.7271 25 50.7271C34.9115 50.7271 43.4756 44.9591 47.5193 36.5967H39.6739Z" fill="#D80027"/>
</g>
<defs>
<clipPath id="clip0_402_333">
<rect width="50" height="50" fill="white" transform="translate(0 0.727173)"/>
</clipPath>
</defs>
</svg>
